<?xml version="1.0" encoding="UTF-8" standalone="no"?>
<!DOCTYPE svg PUBLIC "-//W3C//DTD SVG 1.1//EN" "http://www.w3.org/Graphics/SVG/1.1/DTD/svg11.dtd">
<svg width="100%" height="100%" viewBox="0 0 487 286" version="1.1" xmlns="http://www.w3.org/2000/svg" xmlns:xlink="http://www.w3.org/1999/xlink" xml:space="preserve" xmlns:serif="http://www.serif.com/" style="fill-rule:evenodd;clip-rule:evenodd;stroke-linejoin:round;stroke-miterlimit:2;">
    <g transform="matrix(1,0,0,1,-1049.66,0)">
        <g id="Logo-Chula-SEAL" serif:id="Logo Chula SEAL" transform="matrix(1.33333,0,0,1.33333,1049.66,0)">
            <rect x="0" y="0" width="364.718" height="214.125" style="fill:none;"/>
            <g id="Layer-1" serif:id="Layer 1" transform="matrix(1,0,0,1,9.02043,-2.40083)">
                <g transform="matrix(1,0,0,1,138.662,78.3804)">
                    <path d="M0,-19.823C1.25,-21.055 2.725,-22.008 4.424,-22.679C6.122,-23.351 7.998,-23.687 10.052,-23.687C12.068,-23.687 13.953,-23.304 15.708,-22.539C17.462,-21.773 19.068,-20.626 20.524,-19.095L25.228,-23.519C23.398,-25.684 21.158,-27.318 18.508,-28.42C15.856,-29.52 12.927,-30.071 9.716,-30.071C6.692,-30.071 3.91,-29.576 1.372,-28.588C-1.167,-27.597 -3.388,-26.188 -5.292,-24.359C-7.196,-22.53 -8.671,-20.402 -9.716,-17.975C-10.762,-15.548 -11.284,-12.86 -11.284,-9.911C-11.284,-6.962 -10.762,-4.273 -9.716,-1.847C-8.671,0.58 -7.206,2.708 -5.32,4.536C-3.436,6.366 -1.224,7.776 1.316,8.765C3.854,9.753 6.636,10.248 9.66,10.248C12.908,10.248 15.856,9.689 18.508,8.569C21.158,7.448 23.398,5.806 25.228,3.641L20.524,-0.783C19.068,0.784 17.462,1.952 15.708,2.717C13.953,3.483 12.068,3.864 10.052,3.864C7.998,3.864 6.122,3.529 4.424,2.857C2.725,2.185 1.25,1.233 0,0C-1.251,-1.231 -2.231,-2.687 -2.94,-4.367C-3.649,-6.048 -4.004,-7.895 -4.004,-9.911C-4.004,-11.927 -3.649,-13.775 -2.94,-15.455C-2.231,-17.135 -1.251,-18.592 0,-19.823" style="fill:rgb(67,42,100);fill-rule:nonzero;"/>
                </g>
                <g transform="matrix(1,0,0,1,138.662,78.3804)">
                    <path d="M0,-19.823C1.25,-21.055 2.725,-22.008 4.424,-22.679C6.122,-23.351 7.998,-23.687 10.052,-23.687C12.068,-23.687 13.953,-23.304 15.708,-22.539C17.462,-21.773 19.068,-20.626 20.524,-19.095L25.228,-23.519C23.398,-25.684 21.158,-27.318 18.508,-28.42C15.856,-29.52 12.927,-30.071 9.716,-30.071C6.692,-30.071 3.91,-29.576 1.372,-28.588C-1.167,-27.597 -3.388,-26.188 -5.292,-24.359C-7.196,-22.53 -8.671,-20.402 -9.716,-17.975C-10.762,-15.548 -11.284,-12.86 -11.284,-9.911C-11.284,-6.962 -10.762,-4.273 -9.716,-1.847C-8.671,0.58 -7.206,2.708 -5.32,4.536C-3.436,6.366 -1.224,7.776 1.316,8.765C3.854,9.753 6.636,10.248 9.66,10.248C12.908,10.248 15.856,9.689 18.508,8.569C21.158,7.448 23.398,5.806 25.228,3.641L20.524,-0.783C19.068,0.784 17.462,1.952 15.708,2.717C13.953,3.483 12.068,3.864 10.052,3.864C7.998,3.864 6.122,3.529 4.424,2.857C2.725,2.185 1.25,1.233 0,0C-1.251,-1.231 -2.231,-2.687 -2.94,-4.367C-3.649,-6.048 -4.004,-7.895 -4.004,-9.911C-4.004,-11.927 -3.649,-13.775 -2.94,-15.455C-2.231,-17.135 -1.251,-18.592 0,-19.823Z" style="fill:rgb(67,42,100);fill-rule:nonzero;"/>
                </g>
                <g transform="matrix(1,0,0,1,203.678,75.4136)">
                    <path d="M0,-16.241C-1.848,-17.174 -3.985,-17.64 -6.412,-17.64C-9.025,-17.64 -11.331,-17.117 -13.328,-16.072C-14.533,-15.442 -15.535,-14.636 -16.38,-13.693L-16.38,-28.896L-23.323,-28.896L-23.323,12.655L-16.38,12.655L-16.38,-2.465C-16.38,-4.48 -16.035,-6.151 -15.344,-7.476C-14.653,-8.802 -13.673,-9.801 -12.403,-10.472C-11.135,-11.144 -9.679,-11.48 -8.036,-11.48C-5.759,-11.48 -4.004,-10.827 -2.771,-9.52C-1.54,-8.214 -0.924,-6.235 -0.924,-3.585L-0.924,12.655L6.076,12.655L6.076,-4.48C6.076,-7.505 5.525,-9.987 4.425,-11.929C3.322,-13.869 1.849,-15.306 0,-16.241" style="fill:rgb(67,42,100);fill-rule:nonzero;"/>
                </g>
                <g transform="matrix(1,0,0,1,203.678,75.4136)">
                    <path d="M0,-16.241C-1.848,-17.174 -3.985,-17.64 -6.412,-17.64C-9.025,-17.64 -11.331,-17.117 -13.328,-16.072C-14.533,-15.442 -15.535,-14.636 -16.38,-13.693L-16.38,-28.896L-23.323,-28.896L-23.323,12.655L-16.38,12.655L-16.38,-2.465C-16.38,-4.48 -16.035,-6.151 -15.344,-7.476C-14.653,-8.802 -13.673,-9.801 -12.403,-10.472C-11.135,-11.144 -9.679,-11.48 -8.036,-11.48C-5.759,-11.48 -4.004,-10.827 -2.771,-9.52C-1.54,-8.214 -0.924,-6.235 -0.924,-3.585L-0.924,12.655L6.076,12.655L6.076,-4.48C6.076,-7.505 5.525,-9.987 4.425,-11.929C3.322,-13.869 1.849,-15.306 0,-16.241Z" style="fill:rgb(67,42,100);fill-rule:nonzero;"/>
                </g>
                <g transform="matrix(1,0,0,1,250.691,73.3409)">
                    <path d="M0,-0.056C0,1.923 -0.336,3.585 -1.008,4.928C-1.68,6.272 -2.632,7.28 -3.864,7.952C-5.096,8.625 -6.533,8.961 -8.176,8.961C-10.379,8.961 -12.096,8.298 -13.328,6.972C-14.56,5.647 -15.176,3.66 -15.176,1.008L-15.176,-15.176L-22.232,-15.176L-22.232,1.904C-22.232,4.891 -21.682,7.364 -20.58,9.324C-19.479,11.284 -17.958,12.74 -16.016,13.692C-14.075,14.644 -11.835,15.12 -9.296,15.12C-6.981,15.12 -4.854,14.597 -2.912,13.552C-1.615,12.854 -0.545,11.945 0.336,10.863L0.336,14.728L7,14.728L7,-15.176L0,-15.176L0,-0.056Z" style="fill:rgb(67,42,100);fill-rule:nonzero;"/>
                </g>
                <g transform="matrix(1,0,0,1,0,-79.539)">
                    <rect x="277.011" y="126.056" width="6.943" height="41.552" style="fill:rgb(67,42,100);"/>
                </g>
                <g transform="matrix(1,0,0,1,318.31,64.0442)">
                    <path d="M0,18.145C-1.363,18.929 -2.903,19.321 -4.619,19.321C-6.411,19.321 -7.812,18.948 -8.819,18.201C-9.827,17.455 -10.332,16.465 -10.332,15.233C-10.332,14.076 -9.911,13.115 -9.071,12.349C-8.231,11.584 -6.636,11.201 -4.283,11.201L2.996,11.201L2.996,14.673C2.361,16.205 1.362,17.361 0,18.145M6.412,-3.135C4.061,-5.225 0.7,-6.271 -3.668,-6.271C-6.058,-6.271 -8.354,-5.954 -10.556,-5.319C-12.759,-4.684 -14.682,-3.751 -16.323,-2.519L-13.58,2.577C-12.423,1.644 -11.041,0.916 -9.436,0.393C-7.831,-0.129 -6.207,-0.391 -4.563,-0.391C-2.025,-0.391 -0.131,0.178 1.12,1.317C2.371,2.457 2.996,4.052 2.996,6.105L2.996,6.553L-4.787,6.553C-7.812,6.553 -10.239,6.945 -12.067,7.729C-13.897,8.513 -15.213,9.577 -16.016,10.921C-16.818,12.265 -17.22,13.777 -17.22,15.457C-17.22,17.174 -16.763,18.714 -15.848,20.077C-14.934,21.44 -13.636,22.504 -11.956,23.269C-10.275,24.034 -8.315,24.416 -6.075,24.416C-3.388,24.416 -1.186,23.932 0.532,22.96C1.722,22.289 2.644,21.415 3.332,20.366L3.332,24.025L9.94,24.025L9.94,6.497C9.94,2.166 8.765,-1.043 6.412,-3.135" style="fill:rgb(67,42,100);fill-rule:nonzero;"/>
                </g>
                <g transform="matrix(1,0,0,1,318.31,64.0442)">
                    <path d="M0,18.145C-1.363,18.929 -2.903,19.321 -4.619,19.321C-6.411,19.321 -7.812,18.948 -8.819,18.201C-9.827,17.455 -10.332,16.465 -10.332,15.233C-10.332,14.076 -9.911,13.115 -9.071,12.349C-8.231,11.584 -6.636,11.201 -4.283,11.201L2.996,11.201L2.996,14.673C2.361,16.205 1.362,17.361 0,18.145ZM6.412,-3.135C4.061,-5.225 0.7,-6.271 -3.668,-6.271C-6.058,-6.271 -8.354,-5.954 -10.556,-5.319C-12.759,-4.684 -14.682,-3.751 -16.323,-2.519L-13.58,2.577C-12.423,1.644 -11.041,0.916 -9.436,0.393C-7.831,-0.129 -6.207,-0.391 -4.563,-0.391C-2.025,-0.391 -0.131,0.178 1.12,1.317C2.371,2.457 2.996,4.052 2.996,6.105L2.996,6.553L-4.787,6.553C-7.812,6.553 -10.239,6.945 -12.067,7.729C-13.897,8.513 -15.213,9.577 -16.016,10.921C-16.818,12.265 -17.22,13.777 -17.22,15.457C-17.22,17.174 -16.763,18.714 -15.848,20.077C-14.934,21.44 -13.636,22.504 -11.956,23.269C-10.275,24.034 -8.315,24.416 -6.075,24.416C-3.388,24.416 -1.186,23.932 0.532,22.96C1.722,22.289 2.644,21.415 3.332,20.366L3.332,24.025L9.94,24.025L9.94,6.497C9.94,2.166 8.765,-1.043 6.412,-3.135Z" style="fill:rgb(67,42,100);fill-rule:nonzero;"/>
                </g>
                <g transform="matrix(1,0,0,1,158.659,141.242)">
                    <path d="M0,0.558C-1.53,-0.331 -3.204,-1.054 -5.022,-1.612C-6.842,-2.171 -8.68,-2.656 -10.54,-3.069C-12.4,-3.482 -14.085,-3.916 -15.593,-4.371C-17.103,-4.826 -18.321,-5.456 -19.251,-6.262C-20.181,-7.068 -20.646,-8.131 -20.646,-9.455C-20.646,-10.53 -20.326,-11.51 -19.686,-12.4C-19.045,-13.289 -18.021,-14.002 -16.616,-14.539C-15.212,-15.076 -13.413,-15.345 -11.222,-15.345C-9.321,-15.345 -7.338,-15.066 -5.271,-14.508C-3.204,-13.95 -1.199,-13.091 0.744,-11.935L3.286,-18.197C1.384,-19.437 -0.848,-20.387 -3.41,-21.049C-5.974,-21.71 -8.556,-22.041 -11.16,-22.041C-15.128,-22.041 -18.404,-21.452 -20.987,-20.274C-23.57,-19.096 -25.493,-17.525 -26.753,-15.562C-28.015,-13.598 -28.645,-11.439 -28.645,-9.083C-28.645,-6.768 -28.179,-4.867 -27.249,-3.38C-26.319,-1.891 -25.09,-0.703 -23.561,0.186C-22.031,1.076 -20.347,1.809 -18.507,2.387C-16.668,2.966 -14.829,3.452 -12.989,3.844C-11.15,4.238 -9.477,4.671 -7.967,5.146C-6.459,5.621 -5.229,6.262 -4.278,7.068C-3.328,7.873 -2.853,8.939 -2.853,10.261C-2.853,11.336 -3.184,12.297 -3.844,13.144C-4.506,13.992 -5.539,14.663 -6.944,15.159C-8.35,15.655 -10.189,15.903 -12.462,15.903C-15.149,15.903 -17.773,15.449 -20.336,14.538C-22.899,13.63 -25.048,12.493 -26.784,11.129L-29.574,17.391C-27.714,18.92 -25.245,20.171 -22.165,21.142C-19.087,22.113 -15.852,22.599 -12.462,22.599C-8.494,22.599 -5.208,22.01 -2.604,20.831C0,19.654 1.932,18.083 3.192,16.12C4.453,14.158 5.084,12.018 5.084,9.703C5.084,7.43 4.619,5.56 3.688,4.092C2.759,2.625 1.528,1.448 0,0.558" style="fill:rgb(67,42,100);fill-rule:nonzero;"/>
                </g>
                <g transform="matrix(1,0,0,1,158.659,141.242)">
                    <path d="M0,0.558C-1.53,-0.331 -3.204,-1.054 -5.022,-1.612C-6.842,-2.171 -8.68,-2.656 -10.54,-3.069C-12.4,-3.482 -14.085,-3.916 -15.593,-4.371C-17.103,-4.826 -18.321,-5.456 -19.251,-6.262C-20.181,-7.068 -20.646,-8.131 -20.646,-9.455C-20.646,-10.53 -20.326,-11.51 -19.686,-12.4C-19.045,-13.289 -18.021,-14.002 -16.616,-14.539C-15.212,-15.076 -13.413,-15.345 -11.222,-15.345C-9.321,-15.345 -7.338,-15.066 -5.271,-14.508C-3.204,-13.95 -1.199,-13.091 0.744,-11.935L3.286,-18.197C1.384,-19.437 -0.848,-20.387 -3.41,-21.049C-5.974,-21.71 -8.556,-22.041 -11.16,-22.041C-15.128,-22.041 -18.404,-21.452 -20.987,-20.274C-23.57,-19.096 -25.493,-17.525 -26.753,-15.562C-28.015,-13.598 -28.645,-11.439 -28.645,-9.083C-28.645,-6.768 -28.179,-4.867 -27.249,-3.38C-26.319,-1.891 -25.09,-0.703 -23.561,0.186C-22.031,1.076 -20.347,1.809 -18.507,2.387C-16.668,2.966 -14.829,3.452 -12.989,3.844C-11.15,4.238 -9.477,4.671 -7.967,5.146C-6.459,5.621 -5.229,6.262 -4.278,7.068C-3.328,7.873 -2.853,8.939 -2.853,10.261C-2.853,11.336 -3.184,12.297 -3.844,13.144C-4.506,13.992 -5.539,14.663 -6.944,15.159C-8.35,15.655 -10.189,15.903 -12.462,15.903C-15.149,15.903 -17.773,15.449 -20.336,14.538C-22.899,13.63 -25.048,12.493 -26.784,11.129L-29.574,17.391C-27.714,18.92 -25.245,20.171 -22.165,21.142C-19.087,22.113 -15.852,22.599 -12.462,22.599C-8.494,22.599 -5.208,22.01 -2.604,20.831C0,19.654 1.932,18.083 3.192,16.12C4.453,14.158 5.084,12.018 5.084,9.703C5.084,7.43 4.619,5.56 3.688,4.092C2.759,2.625 1.528,1.448 0,0.558Z" style="fill:rgb(67,42,100);fill-rule:nonzero;"/>
                </g>
                <g transform="matrix(1,0,0,1,192.82,138.544)">
                    <path d="M0,5.953L20.956,5.953L20.956,-0.682L0,-0.682L0,-11.903L23.622,-11.903L23.622,-18.724L-8.06,-18.724L-8.06,24.677L24.49,24.677L24.49,17.856L0,17.856L0,5.953Z" style="fill:rgb(67,42,100);fill-rule:nonzero;"/>
                </g>
                <g transform="matrix(1,0,0,1,248.458,136.188)">
                    <path d="M0,10.664L8.157,-8.329L16.284,10.664L0,10.664ZM4.254,-16.368L-15.275,27.032L-7.03,27.032L-2.716,16.988L18.99,16.988L23.288,27.032L31.782,27.032L12.191,-16.368L4.254,-16.368Z" style="fill:rgb(67,42,100);fill-rule:nonzero;"/>
                </g>
                <g transform="matrix(1,0,0,1,306.838,126.64)">
                    <path d="M0,29.76L0,-6.82L-8.06,-6.82L-8.06,36.58L22.692,36.58L22.692,29.76L0,29.76Z" style="fill:rgb(67,42,100);fill-rule:nonzero;"/>
                </g>
                <g transform="matrix(1,0,0,1,64.7328,157.748)">
                    <path d="M0,6.837C-1.105,5.257 -2.164,3.612 -3.146,1.947C-4.255,0.064 -5.289,-1.889 -6.218,-3.852C-6.457,-4.357 -6.689,-4.865 -6.917,-5.376L-7.249,-6.128C-7.263,-6.164 -7.284,-6.218 -7.318,-6.298C-7.788,-7.449 -8.182,-8.471 -8.521,-9.421C-9.528,-12.234 -10.354,-15.167 -10.977,-18.145C-9.865,-17.085 -8.782,-15.96 -7.732,-14.87C-7.184,-14.3 -6.635,-13.73 -6.081,-13.168C-4.971,-12.041 -3.856,-10.916 -2.742,-9.791C-0.424,-7.45 1.974,-5.03 4.302,-2.623C5.906,-0.964 6.954,0.17 7.981,1.929C8.921,3.535 9.438,5.339 9.966,7.73C10.78,11.408 12.001,16.235 14.22,20.943C14.447,21.424 14.7,21.933 14.989,22.487C14.949,22.457 14.908,22.426 14.866,22.394L14.792,22.338C14.776,22.324 14.75,22.304 14.686,22.253C14.327,21.971 13.969,21.686 13.615,21.398C12.835,20.762 12.053,20.097 11.29,19.421C8.405,16.864 5.688,14.054 3.217,11.068C2.924,10.715 2.634,10.358 2.347,9.998C2.202,9.817 2.059,9.635 1.915,9.451L1.806,9.311C1.126,8.412 0.535,7.603 0,6.837M22.801,22.747C22.358,22.099 21.941,21.486 21.582,20.858C19.282,16.821 17.762,12.721 16.651,7.562C16.064,4.83 15.488,2.373 14.374,-0.03C13.225,-2.507 11.434,-4.611 10.001,-6.169C7.223,-9.191 4.26,-12.145 1.395,-15.002C0.105,-16.287 -1.229,-17.616 -2.525,-18.933C-2.985,-19.4 -3.454,-19.903 -3.907,-20.39C-5.453,-22.052 -7.053,-23.769 -9.005,-24.854C-10.444,-25.655 -11.81,-26.042 -13.093,-25.991C-14.823,-25.926 -16.205,-25.133 -17.438,-23.493C-17.699,-23.146 -17.855,-22.726 -17.898,-22.27C-18.087,-21.685 -18.131,-21.032 -18.028,-20.331C-15.568,-3.535 -6.322,12.874 7.34,24.689C9.011,26.132 10.836,27.578 12.767,28.986L13.279,29.362C14.921,30.566 16.617,31.81 18.515,32.533C19.124,32.765 19.76,32.879 20.39,32.879C21.521,32.879 22.631,32.512 23.521,31.807C24.784,30.807 25.382,29.293 25.162,27.654C24.92,25.854 23.843,24.274 22.801,22.747" style="fill:rgb(67,42,100);fill-rule:nonzero;"/>
                </g>
                <g transform="matrix(1,0,0,1,64.7328,157.748)">
                    <path d="M0,6.837C-1.105,5.257 -2.164,3.612 -3.146,1.947C-4.255,0.064 -5.289,-1.889 -6.218,-3.852C-6.457,-4.357 -6.689,-4.865 -6.917,-5.376L-7.249,-6.128C-7.263,-6.164 -7.284,-6.218 -7.318,-6.298C-7.788,-7.449 -8.182,-8.471 -8.521,-9.421C-9.528,-12.234 -10.354,-15.167 -10.977,-18.145C-9.865,-17.085 -8.782,-15.96 -7.732,-14.87C-7.184,-14.3 -6.635,-13.73 -6.081,-13.168C-4.971,-12.041 -3.856,-10.916 -2.742,-9.791C-0.424,-7.45 1.974,-5.03 4.302,-2.623C5.906,-0.964 6.954,0.17 7.981,1.929C8.921,3.535 9.438,5.339 9.966,7.73C10.78,11.408 12.001,16.235 14.22,20.943C14.447,21.424 14.7,21.933 14.989,22.487C14.949,22.457 14.908,22.426 14.866,22.394L14.792,22.338C14.776,22.324 14.75,22.304 14.686,22.253C14.327,21.971 13.969,21.686 13.615,21.398C12.835,20.762 12.053,20.097 11.29,19.421C8.405,16.864 5.688,14.054 3.217,11.068C2.924,10.715 2.634,10.358 2.347,9.998C2.202,9.817 2.059,9.635 1.915,9.451L1.806,9.311C1.126,8.412 0.535,7.603 0,6.837ZM22.801,22.747C22.358,22.099 21.941,21.486 21.582,20.858C19.282,16.821 17.762,12.721 16.651,7.562C16.064,4.83 15.488,2.373 14.374,-0.03C13.225,-2.507 11.434,-4.611 10.001,-6.169C7.223,-9.191 4.26,-12.145 1.395,-15.002C0.105,-16.287 -1.229,-17.616 -2.525,-18.933C-2.985,-19.4 -3.454,-19.903 -3.907,-20.39C-5.453,-22.052 -7.053,-23.769 -9.005,-24.854C-10.444,-25.655 -11.81,-26.042 -13.093,-25.991C-14.823,-25.926 -16.205,-25.133 -17.438,-23.493C-17.699,-23.146 -17.855,-22.726 -17.898,-22.27C-18.087,-21.685 -18.131,-21.032 -18.028,-20.331C-15.568,-3.535 -6.322,12.874 7.34,24.689C9.011,26.132 10.836,27.578 12.767,28.986L13.279,29.362C14.921,30.566 16.617,31.81 18.515,32.533C19.124,32.765 19.76,32.879 20.39,32.879C21.521,32.879 22.631,32.512 23.521,31.807C24.784,30.807 25.382,29.293 25.162,27.654C24.92,25.854 23.843,24.274 22.801,22.747Z" style="fill:rgb(67,42,100);fill-rule:nonzero;"/>
                </g>
                <g transform="matrix(1,0,0,1,99.2514,35.3678)">
                    <path d="M0,71.754C-0.034,71.767 -0.073,71.782 -0.118,71.799C-0.469,71.934 -0.826,72.064 -1.212,72.195C-2.672,72.691 -4.187,73.079 -5.713,73.349L-6.486,73.477C-6.771,73.513 -7.056,73.545 -7.341,73.572C-8.161,73.65 -8.998,73.696 -9.83,73.71C-11.321,73.733 -12.791,73.657 -14.199,73.48C-14.261,73.469 -14.432,73.442 -14.596,73.417C-14.751,73.393 -14.901,73.369 -14.946,73.361C-15.358,73.29 -15.732,73.219 -16.09,73.143C-16.844,72.983 -17.603,72.793 -18.345,72.577C-19.026,72.38 -19.717,72.152 -20.396,71.902C-20.798,71.755 -21.123,71.628 -21.398,71.514C-21.417,71.502 -21.463,71.48 -21.941,71.26C-22.081,71.196 -22.204,71.14 -22.24,71.123C-22.824,70.842 -23.407,70.532 -23.972,70.233C-24.753,69.818 -25.561,69.389 -26.389,69.028C-28.272,68.207 -30.087,67.775 -32.1,67.668C-32.806,67.631 -33.522,67.626 -34.216,67.622C-34.983,67.617 -35.776,67.613 -36.555,67.563C-36.885,67.541 -37.216,67.513 -37.545,67.482C-37.6,67.476 -37.703,67.464 -37.812,67.451C-37.938,67.438 -38.069,67.422 -38.139,67.415C-38.771,67.324 -39.38,67.218 -39.946,67.102C-41.252,66.832 -42.55,66.476 -43.803,66.041C-44.073,65.947 -44.342,65.851 -44.608,65.749C-44.77,65.689 -44.929,65.625 -45.089,65.562L-45.146,65.539C-45.156,65.536 -45.18,65.526 -45.21,65.514L-45.616,65.335C-45.728,65.284 -45.839,65.233 -45.949,65.182C-46.292,65.021 -46.632,64.854 -46.967,64.68C-48.11,64.087 -49.203,63.421 -50.215,62.701C-50.262,62.668 -50.366,62.59 -50.47,62.513C-50.601,62.415 -50.729,62.32 -50.732,62.32C-50.899,62.187 -51.067,62.051 -51.232,61.912C-51.766,61.462 -52.282,60.986 -52.767,60.499C-53.193,60.07 -53.604,59.624 -53.986,59.172C-54.076,59.066 -54.164,58.959 -54.252,58.853L-54.621,58.359C-54.693,58.257 -54.767,58.155 -54.837,58.052C-55.537,57.03 -56.145,55.945 -56.638,54.841C-56.647,54.809 -56.698,54.676 -56.751,54.54C-56.794,54.429 -56.839,54.314 -56.859,54.255C-56.953,53.993 -57.04,53.73 -57.123,53.465C-57.327,52.806 -57.51,52.108 -57.664,51.393C-57.785,50.83 -57.897,50.211 -58.006,49.501L-58.014,49.441C-58.032,49.289 -58.051,49.139 -58.067,48.988C-58.112,48.58 -58.149,48.172 -58.182,47.762C-58.288,46.419 -58.335,45.031 -58.325,43.519C-58.31,40.916 -58.128,38.107 -57.771,34.928C-57.693,34.245 -57.608,33.564 -57.521,32.881L-57.501,32.72C-57.497,32.688 -57.492,32.655 -57.483,32.596C-57.465,32.461 -57.448,32.355 -57.433,32.256C-57.406,32.089 -57.384,31.942 -57.36,31.711C-57.343,31.546 -57.338,31.41 -57.334,31.254C-57.326,31.012 -57.317,30.71 -57.247,30.15C-57.219,29.727 -57.315,28.501 -57.374,27.99C-57.523,26.672 -58.856,25.15 -60.603,24.984L-60.98,24.925C-61.138,24.895 -61.294,24.864 -61.45,24.828C-61.806,24.744 -62.158,24.63 -62.499,24.52C-62.613,24.482 -62.729,24.444 -62.844,24.408L-63.199,24.25C-63.344,24.18 -63.487,24.11 -63.629,24.035C-64.051,23.812 -64.474,23.556 -64.886,23.275C-64.988,23.206 -65.089,23.132 -65.188,23.059L-65.255,23.011C-65.299,22.973 -65.405,22.886 -65.494,22.814C-65.554,22.765 -65.606,22.722 -65.624,22.706C-65.999,22.381 -66.369,22.026 -66.727,21.651C-67.021,21.343 -67.301,21.008 -67.584,20.668C-67.61,20.632 -67.669,20.558 -67.729,20.483C-67.8,20.393 -67.872,20.301 -67.89,20.275C-68.045,20.057 -68.194,19.836 -68.341,19.611C-68.982,18.628 -69.496,17.601 -69.915,16.725C-69.947,16.656 -69.967,16.616 -69.977,16.602L-70.132,16.184C-70.199,16.007 -70.267,15.831 -70.329,15.652C-70.52,15.118 -70.693,14.567 -70.847,14.012C-71,13.459 -71.137,12.889 -71.253,12.317C-71.301,12.076 -71.346,11.836 -71.387,11.595C-71.392,11.564 -71.408,11.458 -71.426,11.339C-71.446,11.201 -71.47,11.047 -71.482,10.975L-71.507,10.739C-71.523,10.584 -71.54,10.425 -71.543,10.386C-71.569,10.088 -71.591,9.791 -71.607,9.493C-71.61,9.441 -71.613,9.384 -71.615,9.328L-71.618,9.246L-71.694,9.216C-72.58,8.863 -73.416,8.169 -74.225,7.497C-74.373,7.374 -74.52,7.252 -74.664,7.135C-76.549,5.598 -77.143,3.193 -75.987,1.776C-74.831,0.359 -72.356,0.454 -70.472,1.99L-70.341,2.097C-69.546,2.744 -68.645,3.477 -68.033,4.281L-67.981,4.35L-67.899,4.326C-67.538,4.223 -67.223,4.081 -66.934,3.895C-65.785,3.149 -64.628,2.491 -63.494,1.942C-63.203,1.801 -62.91,1.668 -62.606,1.53C-62.475,1.47 -62.418,1.442 -62.414,1.438C-62.379,1.427 -62.313,1.402 -62.162,1.347C-61.62,1.144 -61.06,0.933 -60.499,0.75C-59.33,0.369 -58.133,0.06 -56.941,-0.169C-56.655,-0.225 -56.367,-0.272 -56.08,-0.32L-55.586,-0.392C-54.901,-0.468 -54.281,-0.517 -53.69,-0.547C-52.492,-0.605 -51.266,-0.588 -50.052,-0.494C-49.736,-0.47 -49.421,-0.44 -49.106,-0.405C-49.024,-0.395 -48.881,-0.377 -48.771,-0.362C-48.117,-0.261 -47.528,-0.152 -46.969,-0.03C-45.727,0.241 -44.484,0.6 -43.279,1.035C-42.975,1.147 -42.674,1.264 -42.372,1.382C-42.238,1.435 -42.18,1.455 -42.171,1.457C-42.138,1.474 -42.074,1.506 -41.938,1.571C-41.37,1.84 -40.767,2.129 -40.176,2.442C-39.875,2.601 -39.533,2.708 -39.101,2.779L-39.018,2.793L-38.974,2.722C-38.428,1.825 -37.524,1.028 -36.712,0.366C-34.829,-1.17 -32.354,-1.267 -31.197,0.152C-30.642,0.834 -30.47,1.764 -30.714,2.771C-30.961,3.789 -31.603,4.763 -32.521,5.511C-32.782,5.724 -33.04,5.95 -33.297,6.176C-33.779,6.601 -34.279,7.04 -34.777,7.358L-34.838,7.396L-34.835,7.468C-34.8,8.441 -34.808,9.234 -34.861,9.969C-34.883,10.273 -34.914,10.575 -34.944,10.878L-34.954,10.976C-34.961,11.04 -34.964,11.074 -34.966,11.1C-34.975,11.141 -34.985,11.191 -35.001,11.269L-35.081,11.691C-35.16,12.107 -35.241,12.536 -35.342,12.954C-35.576,13.921 -35.895,14.923 -36.314,16.014L-36.379,16.169C-36.427,16.28 -36.477,16.402 -36.498,16.448C-36.614,16.699 -36.735,16.948 -36.86,17.195C-37.129,17.722 -37.423,18.245 -37.736,18.75C-37.929,19.06 -38.141,19.364 -38.346,19.658C-38.447,19.805 -38.55,19.951 -38.656,20.109C-38.708,20.173 -38.759,20.237 -38.813,20.301C-39.012,20.542 -39.218,20.779 -39.423,21.005C-39.783,21.398 -40.159,21.774 -40.541,22.123C-40.673,22.243 -40.808,22.359 -40.942,22.475L-41.243,22.737L-41.31,22.783C-42.137,23.37 -43.01,23.882 -43.979,24.349L-44.04,24.383C-44.073,24.392 -44.107,24.4 -44.17,24.421C-44.283,24.457 -44.395,24.497 -44.507,24.536C-44.641,24.583 -44.774,24.631 -44.91,24.673C-45.45,24.84 -46.032,24.98 -46.689,25.098C-48.249,25.38 -48.963,27.011 -49.101,28.323C-49.145,28.735 -49.104,29.219 -49.069,29.646C-49.053,29.845 -49.037,30.032 -49.031,30.205L-48.943,30.936C-46.929,38.249 -43.88,43.334 -39.623,46.483C-35.316,49.667 -29.613,50.066 -24.14,50.201C-23.351,50.221 -22.562,50.233 -21.771,50.244C-19.896,50.272 -17.957,50.3 -16.057,50.439C-15.512,50.478 -14.935,50.532 -14.267,50.609L-14.106,50.634C-14.044,50.644 -13.986,50.653 -13.958,50.658L-13.822,50.682C-13.57,50.726 -13.319,50.769 -13.069,50.819C-12.438,50.949 -11.821,51.107 -11.238,51.289C-10.975,51.371 -10.713,51.459 -10.454,51.552C-10.378,51.58 -10.212,51.65 -10.062,51.712C-9.915,51.774 -9.821,51.813 -9.759,51.832C-8.447,52.467 -7.468,53.026 -6.584,53.645C-6.411,53.766 -6.24,53.892 -6.082,54.009C-6.06,54.03 -5.931,54.137 -5.806,54.238C-5.716,54.312 -5.629,54.383 -5.588,54.417C-5.096,54.838 -4.621,55.283 -4.175,55.739C-3.727,56.197 -3.29,56.684 -2.88,57.182C-2.816,57.259 -2.755,57.335 -2.692,57.413C-2.449,57.746 -2.248,58.028 -2.052,58.321C-1.423,59.262 -0.851,60.301 -0.199,61.683L-0.16,61.782C-0.134,61.848 -0.107,61.913 -0.083,61.981C0.039,62.299 0.145,62.597 0.242,62.89C0.442,63.495 0.618,64.119 0.763,64.747C0.832,65.042 0.897,65.359 0.957,65.691C0.969,65.753 0.989,65.911 1.008,66.053C1.025,66.182 1.036,66.269 1.05,66.326C1.104,66.914 1.148,67.447 1.157,67.996C1.167,68.59 1.147,69.193 1.1,69.79C1.096,69.833 1.082,69.992 1.074,70.096C1.065,70.162 1.056,70.231 1.055,70.237C0.983,70.596 0.909,70.944 0.788,71.272C0.758,71.301 0.726,71.333 0.701,71.36L0.671,71.379C0.587,71.433 0.503,71.485 0.418,71.533C0.285,71.608 0.149,71.676 0.013,71.743C0.008,71.746 0.004,71.748 -0.001,71.751L0,71.754ZM7.675,66.739C7.187,60.781 4.562,55.151 0.282,50.89C-1.835,48.781 -4.271,47.09 -6.765,45.998C-9.376,44.854 -12.147,44.189 -15.485,43.903C-17.569,43.726 -19.693,43.694 -21.747,43.665C-22.444,43.654 -23.143,43.645 -23.84,43.629C-25,43.604 -26.526,43.558 -28.04,43.434C-28.37,43.407 -28.699,43.377 -29.028,43.342C-29.103,43.334 -29.252,43.315 -29.388,43.298C-29.503,43.283 -29.608,43.27 -29.646,43.266C-30.346,43.159 -30.918,43.054 -31.445,42.934C-32.085,42.789 -32.667,42.629 -33.225,42.445C-33.402,42.386 -33.577,42.32 -33.753,42.256L-33.854,42.218C-33.902,42.192 -33.975,42.16 -34.078,42.115C-34.222,42.054 -34.395,41.98 -34.474,41.94C-35.004,41.672 -35.489,41.36 -35.98,41.037C-35.995,41.027 -36.017,41.011 -36.036,40.996C-36.128,40.921 -36.219,40.846 -36.308,40.768C-36.604,40.513 -36.895,40.24 -37.173,39.959C-37.416,39.714 -37.654,39.457 -37.882,39.198C-38.013,39.049 -38.14,38.895 -38.259,38.752C-38.264,38.746 -38.329,38.66 -38.38,38.596C-38.432,38.523 -38.5,38.43 -38.499,38.43L-38.499,38.431L-38.63,38.243C-38.701,38.14 -38.773,38.037 -38.844,37.934C-39.059,37.613 -39.276,37.268 -39.492,36.906C-39.84,36.323 -40.182,35.689 -40.507,35.021C-40.664,34.697 -40.814,34.371 -40.961,34.045L-40.999,33.96C-41.078,33.767 -41.157,33.572 -41.233,33.377C-41.535,32.601 -41.819,31.767 -42.151,30.685C-38.096,29.218 -34.458,26.066 -31.897,21.797C-29.534,17.858 -28.204,13.143 -28.241,8.849C-28.021,8.713 -27.82,8.474 -27.642,8.259C-27.594,8.201 -27.548,8.146 -27.504,8.097C-26.76,7.251 -26.268,6.433 -25.805,5.271C-25.471,4.435 -25.351,3.593 -25.248,2.733C-25.064,1.192 -25.274,-0.424 -25.838,-1.814C-26.693,-3.926 -27.926,-5.372 -29.5,-6.114C-31.374,-6.996 -33.347,-7.137 -35.054,-6.51C-36.476,-5.987 -37.704,-5.153 -38.612,-4.094C-48.256,-8.491 -59.471,-7.988 -68.657,-2.745C-69.351,-3.578 -70.216,-4.265 -71.104,-4.684C-72.462,-5.324 -74.528,-5.94 -76.656,-5.23C-78.521,-4.612 -80.087,-3.292 -80.951,-1.61C-81.787,0.017 -82.182,1.793 -82.092,3.526C-81.971,5.853 -81.195,7.844 -79.785,9.445C-79.461,9.816 -78.934,10.36 -78.076,10.854C-77.79,14.864 -76.304,19.216 -73.994,22.803C-72.132,25.695 -68.862,29.445 -63.842,30.941C-64.604,36.412 -65.236,42.274 -64.736,48.092C-64.417,51.783 -63.836,54.507 -62.852,56.922C-61.68,59.794 -60.016,62.393 -57.906,64.646C-54.112,68.7 -48.749,71.736 -42.804,73.195C-40.105,73.858 -37.132,74.19 -33.714,74.21L-33.573,74.211C-32.838,74.215 -32.076,74.22 -31.351,74.306C-31.308,74.314 -31.231,74.326 -31.164,74.338C-31.104,74.349 -31.051,74.358 -31.038,74.36L-30.928,74.385C-30.795,74.415 -30.661,74.445 -30.527,74.481C-30.33,74.532 -30.123,74.594 -29.879,74.675L-29.788,74.708C-29.527,74.803 -29.438,74.834 -29.43,74.834C-28.627,75.173 -27.843,75.597 -27.084,76.006C-26.485,76.329 -25.866,76.664 -25.24,76.956C-20.565,79.135 -15.483,80.245 -10.298,80.244C-8.424,80.244 -6.535,80.1 -4.647,79.807C-3.039,79.559 -1.45,79.184 0.073,78.693C1.968,78.084 3.783,77.433 5.177,76.167C7.195,74.331 8.036,71.159 7.675,66.739" style="fill:rgb(67,42,100);fill-rule:nonzero;"/>
                </g>
                <g transform="matrix(1,0,0,1,99.2514,35.3678)">
                    <path d="M0,71.754C-0.034,71.767 -0.073,71.782 -0.118,71.799C-0.469,71.934 -0.826,72.064 -1.212,72.195C-2.672,72.691 -4.187,73.079 -5.713,73.349L-6.486,73.477C-6.771,73.513 -7.056,73.545 -7.341,73.572C-8.161,73.65 -8.998,73.696 -9.83,73.71C-11.321,73.733 -12.791,73.657 -14.199,73.48C-14.261,73.469 -14.432,73.442 -14.596,73.417C-14.751,73.393 -14.901,73.369 -14.946,73.361C-15.358,73.29 -15.732,73.219 -16.09,73.143C-16.844,72.983 -17.603,72.793 -18.345,72.577C-19.026,72.38 -19.717,72.152 -20.396,71.902C-20.798,71.755 -21.123,71.628 -21.398,71.514C-21.417,71.502 -21.463,71.48 -21.941,71.26C-22.081,71.196 -22.204,71.14 -22.24,71.123C-22.824,70.842 -23.407,70.532 -23.972,70.233C-24.753,69.818 -25.561,69.389 -26.389,69.028C-28.272,68.207 -30.087,67.775 -32.1,67.668C-32.806,67.631 -33.522,67.626 -34.216,67.622C-34.983,67.617 -35.776,67.613 -36.555,67.563C-36.885,67.541 -37.216,67.513 -37.545,67.482C-37.6,67.476 -37.703,67.464 -37.812,67.451C-37.938,67.438 -38.069,67.422 -38.139,67.415C-38.771,67.324 -39.38,67.218 -39.946,67.102C-41.252,66.832 -42.55,66.476 -43.803,66.041C-44.073,65.947 -44.342,65.851 -44.608,65.749C-44.77,65.689 -44.929,65.625 -45.089,65.562L-45.146,65.539C-45.156,65.536 -45.18,65.526 -45.21,65.514L-45.616,65.335C-45.728,65.284 -45.839,65.233 -45.949,65.182C-46.292,65.021 -46.632,64.854 -46.967,64.68C-48.11,64.087 -49.203,63.421 -50.215,62.701C-50.262,62.668 -50.366,62.59 -50.47,62.513C-50.601,62.415 -50.729,62.32 -50.732,62.32C-50.899,62.187 -51.067,62.051 -51.232,61.912C-51.766,61.462 -52.282,60.986 -52.767,60.499C-53.193,60.07 -53.604,59.624 -53.986,59.172C-54.076,59.066 -54.164,58.959 -54.252,58.853L-54.621,58.359C-54.693,58.257 -54.767,58.155 -54.837,58.052C-55.537,57.03 -56.145,55.945 -56.638,54.841C-56.647,54.809 -56.698,54.676 -56.751,54.54C-56.794,54.429 -56.839,54.314 -56.859,54.255C-56.953,53.993 -57.04,53.73 -57.123,53.465C-57.327,52.806 -57.51,52.108 -57.664,51.393C-57.785,50.83 -57.897,50.211 -58.006,49.501L-58.014,49.441C-58.032,49.289 -58.051,49.139 -58.067,48.988C-58.112,48.58 -58.149,48.172 -58.182,47.762C-58.288,46.419 -58.335,45.031 -58.325,43.519C-58.31,40.916 -58.128,38.107 -57.771,34.928C-57.693,34.245 -57.608,33.564 -57.521,32.881L-57.501,32.72C-57.497,32.688 -57.492,32.655 -57.483,32.596C-57.465,32.461 -57.448,32.355 -57.433,32.256C-57.406,32.089 -57.384,31.942 -57.36,31.711C-57.343,31.546 -57.338,31.41 -57.334,31.254C-57.326,31.012 -57.317,30.71 -57.247,30.15C-57.219,29.727 -57.315,28.501 -57.374,27.99C-57.523,26.672 -58.856,25.15 -60.603,24.984L-60.98,24.925C-61.138,24.895 -61.294,24.864 -61.45,24.828C-61.806,24.744 -62.158,24.63 -62.499,24.52C-62.613,24.482 -62.729,24.444 -62.844,24.408L-63.199,24.25C-63.344,24.18 -63.487,24.11 -63.629,24.035C-64.051,23.812 -64.474,23.556 -64.886,23.275C-64.988,23.206 -65.089,23.132 -65.188,23.059L-65.255,23.011C-65.299,22.973 -65.405,22.886 -65.494,22.814C-65.554,22.765 -65.606,22.722 -65.624,22.706C-65.999,22.381 -66.369,22.026 -66.727,21.651C-67.021,21.343 -67.301,21.008 -67.584,20.668C-67.61,20.632 -67.669,20.558 -67.729,20.483C-67.8,20.393 -67.872,20.301 -67.89,20.275C-68.045,20.057 -68.194,19.836 -68.341,19.611C-68.982,18.628 -69.496,17.601 -69.915,16.725C-69.947,16.656 -69.967,16.616 -69.977,16.602L-70.132,16.184C-70.199,16.007 -70.267,15.831 -70.329,15.652C-70.52,15.118 -70.693,14.567 -70.847,14.012C-71,13.459 -71.137,12.889 -71.253,12.317C-71.301,12.076 -71.346,11.836 -71.387,11.595C-71.392,11.564 -71.408,11.458 -71.426,11.339C-71.446,11.201 -71.47,11.047 -71.482,10.975L-71.507,10.739C-71.523,10.584 -71.54,10.425 -71.543,10.386C-71.569,10.088 -71.591,9.791 -71.607,9.493C-71.61,9.441 -71.613,9.384 -71.615,9.328L-71.618,9.246L-71.694,9.216C-72.58,8.863 -73.416,8.169 -74.225,7.497C-74.373,7.374 -74.52,7.252 -74.664,7.135C-76.549,5.598 -77.143,3.193 -75.987,1.776C-74.831,0.359 -72.356,0.454 -70.472,1.99L-70.341,2.097C-69.546,2.744 -68.645,3.477 -68.033,4.281L-67.981,4.35L-67.899,4.326C-67.538,4.223 -67.223,4.081 -66.934,3.895C-65.785,3.149 -64.628,2.491 -63.494,1.942C-63.203,1.801 -62.91,1.668 -62.606,1.53C-62.475,1.47 -62.418,1.442 -62.414,1.438C-62.379,1.427 -62.313,1.402 -62.162,1.347C-61.62,1.144 -61.06,0.933 -60.499,0.75C-59.33,0.369 -58.133,0.06 -56.941,-0.169C-56.655,-0.225 -56.367,-0.272 -56.08,-0.32L-55.586,-0.392C-54.901,-0.468 -54.281,-0.517 -53.69,-0.547C-52.492,-0.605 -51.266,-0.588 -50.052,-0.494C-49.736,-0.47 -49.421,-0.44 -49.106,-0.405C-49.024,-0.395 -48.881,-0.377 -48.771,-0.362C-48.117,-0.261 -47.528,-0.152 -46.969,-0.03C-45.727,0.241 -44.484,0.6 -43.279,1.035C-42.975,1.147 -42.674,1.264 -42.372,1.382C-42.238,1.435 -42.18,1.455 -42.171,1.457C-42.138,1.474 -42.074,1.506 -41.938,1.571C-41.37,1.84 -40.767,2.129 -40.176,2.442C-39.875,2.601 -39.533,2.708 -39.101,2.779L-39.018,2.793L-38.974,2.722C-38.428,1.825 -37.524,1.028 -36.712,0.366C-34.829,-1.17 -32.354,-1.267 -31.197,0.152C-30.642,0.834 -30.47,1.764 -30.714,2.771C-30.961,3.789 -31.603,4.763 -32.521,5.511C-32.782,5.724 -33.04,5.95 -33.297,6.176C-33.779,6.601 -34.279,7.04 -34.777,7.358L-34.838,7.396L-34.835,7.468C-34.8,8.441 -34.808,9.234 -34.861,9.969C-34.883,10.273 -34.914,10.575 -34.944,10.878L-34.954,10.976C-34.961,11.04 -34.964,11.074 -34.966,11.1C-34.975,11.141 -34.985,11.191 -35.001,11.269L-35.081,11.691C-35.16,12.107 -35.241,12.536 -35.342,12.954C-35.576,13.921 -35.895,14.923 -36.314,16.014L-36.379,16.169C-36.427,16.28 -36.477,16.402 -36.498,16.448C-36.614,16.699 -36.735,16.948 -36.86,17.195C-37.129,17.722 -37.423,18.245 -37.736,18.75C-37.929,19.06 -38.141,19.364 -38.346,19.658C-38.447,19.805 -38.55,19.951 -38.656,20.109C-38.708,20.173 -38.759,20.237 -38.813,20.301C-39.012,20.542 -39.218,20.779 -39.423,21.005C-39.783,21.398 -40.159,21.774 -40.541,22.123C-40.673,22.243 -40.808,22.359 -40.942,22.475L-41.243,22.737L-41.31,22.783C-42.137,23.37 -43.01,23.882 -43.979,24.349L-44.04,24.383C-44.073,24.392 -44.107,24.4 -44.17,24.421C-44.283,24.457 -44.395,24.497 -44.507,24.536C-44.641,24.583 -44.774,24.631 -44.91,24.673C-45.45,24.84 -46.032,24.98 -46.689,25.098C-48.249,25.38 -48.963,27.011 -49.101,28.323C-49.145,28.735 -49.104,29.219 -49.069,29.646C-49.053,29.845 -49.037,30.032 -49.031,30.205L-48.943,30.936C-46.929,38.249 -43.88,43.334 -39.623,46.483C-35.316,49.667 -29.613,50.066 -24.14,50.201C-23.351,50.221 -22.562,50.233 -21.771,50.244C-19.896,50.272 -17.957,50.3 -16.057,50.439C-15.512,50.478 -14.935,50.532 -14.267,50.609L-14.106,50.634C-14.044,50.644 -13.986,50.653 -13.958,50.658L-13.822,50.682C-13.57,50.726 -13.319,50.769 -13.069,50.819C-12.438,50.949 -11.821,51.107 -11.238,51.289C-10.975,51.371 -10.713,51.459 -10.454,51.552C-10.378,51.58 -10.212,51.65 -10.062,51.712C-9.915,51.774 -9.821,51.813 -9.759,51.832C-8.447,52.467 -7.468,53.026 -6.584,53.645C-6.411,53.766 -6.24,53.892 -6.082,54.009C-6.06,54.03 -5.931,54.137 -5.806,54.238C-5.716,54.312 -5.629,54.383 -5.588,54.417C-5.096,54.838 -4.621,55.283 -4.175,55.739C-3.727,56.197 -3.29,56.684 -2.88,57.182C-2.816,57.259 -2.755,57.335 -2.692,57.413C-2.449,57.746 -2.248,58.028 -2.052,58.321C-1.423,59.262 -0.851,60.301 -0.199,61.683L-0.16,61.782C-0.134,61.848 -0.107,61.913 -0.083,61.981C0.039,62.299 0.145,62.597 0.242,62.89C0.442,63.495 0.618,64.119 0.763,64.747C0.832,65.042 0.897,65.359 0.957,65.691C0.969,65.753 0.989,65.911 1.008,66.053C1.025,66.182 1.036,66.269 1.05,66.326C1.104,66.914 1.148,67.447 1.157,67.996C1.167,68.59 1.147,69.193 1.1,69.79C1.096,69.833 1.082,69.992 1.074,70.096C1.065,70.162 1.056,70.231 1.055,70.237C0.983,70.596 0.909,70.944 0.788,71.272C0.758,71.301 0.726,71.333 0.701,71.36L0.671,71.379C0.587,71.433 0.503,71.485 0.418,71.533C0.285,71.608 0.149,71.676 0.013,71.743C0.008,71.746 0.004,71.748 -0.001,71.751L0,71.754ZM7.675,66.739C7.187,60.781 4.562,55.151 0.282,50.89C-1.835,48.781 -4.271,47.09 -6.765,45.998C-9.376,44.854 -12.147,44.189 -15.485,43.903C-17.569,43.726 -19.693,43.694 -21.747,43.665C-22.444,43.654 -23.143,43.645 -23.84,43.629C-25,43.604 -26.526,43.558 -28.04,43.434C-28.37,43.407 -28.699,43.377 -29.028,43.342C-29.103,43.334 -29.252,43.315 -29.388,43.298C-29.503,43.283 -29.608,43.27 -29.646,43.266C-30.346,43.159 -30.918,43.054 -31.445,42.934C-32.085,42.789 -32.667,42.629 -33.225,42.445C-33.402,42.386 -33.577,42.32 -33.753,42.256L-33.854,42.218C-33.902,42.192 -33.975,42.16 -34.078,42.115C-34.222,42.054 -34.395,41.98 -34.474,41.94C-35.004,41.672 -35.489,41.36 -35.98,41.037C-35.995,41.027 -36.017,41.011 -36.036,40.996C-36.128,40.921 -36.219,40.846 -36.308,40.768C-36.604,40.513 -36.895,40.24 -37.173,39.959C-37.416,39.714 -37.654,39.457 -37.882,39.198C-38.013,39.049 -38.14,38.895 -38.259,38.752C-38.264,38.746 -38.329,38.66 -38.38,38.596C-38.432,38.523 -38.5,38.43 -38.499,38.43L-38.499,38.431L-38.63,38.243C-38.701,38.14 -38.773,38.037 -38.844,37.934C-39.059,37.613 -39.276,37.268 -39.492,36.906C-39.84,36.323 -40.182,35.689 -40.507,35.021C-40.664,34.697 -40.814,34.371 -40.961,34.045L-40.999,33.96C-41.078,33.767 -41.157,33.572 -41.233,33.377C-41.535,32.601 -41.819,31.767 -42.151,30.685C-38.096,29.218 -34.458,26.066 -31.897,21.797C-29.534,17.858 -28.204,13.143 -28.241,8.849C-28.021,8.713 -27.82,8.474 -27.642,8.259C-27.594,8.201 -27.548,8.146 -27.504,8.097C-26.76,7.251 -26.268,6.433 -25.805,5.271C-25.471,4.435 -25.351,3.593 -25.248,2.733C-25.064,1.192 -25.274,-0.424 -25.838,-1.814C-26.693,-3.926 -27.926,-5.372 -29.5,-6.114C-31.374,-6.996 -33.347,-7.137 -35.054,-6.51C-36.476,-5.987 -37.704,-5.153 -38.612,-4.094C-48.256,-8.491 -59.471,-7.988 -68.657,-2.745C-69.351,-3.578 -70.216,-4.265 -71.104,-4.684C-72.462,-5.324 -74.528,-5.94 -76.656,-5.23C-78.521,-4.612 -80.087,-3.292 -80.951,-1.61C-81.787,0.017 -82.182,1.793 -82.092,3.526C-81.971,5.853 -81.195,7.844 -79.785,9.445C-79.461,9.816 -78.934,10.36 -78.076,10.854C-77.79,14.864 -76.304,19.216 -73.994,22.803C-72.132,25.695 -68.862,29.445 -63.842,30.941C-64.604,36.412 -65.236,42.274 -64.736,48.092C-64.417,51.783 -63.836,54.507 -62.852,56.922C-61.68,59.794 -60.016,62.393 -57.906,64.646C-54.112,68.7 -48.749,71.736 -42.804,73.195C-40.105,73.858 -37.132,74.19 -33.714,74.21L-33.573,74.211C-32.838,74.215 -32.076,74.22 -31.351,74.306C-31.308,74.314 -31.231,74.326 -31.164,74.338C-31.104,74.349 -31.051,74.358 -31.038,74.36L-30.928,74.385C-30.795,74.415 -30.661,74.445 -30.527,74.481C-30.33,74.532 -30.123,74.594 -29.879,74.675L-29.788,74.708C-29.527,74.803 -29.438,74.834 -29.43,74.834C-28.627,75.173 -27.843,75.597 -27.084,76.006C-26.485,76.329 -25.866,76.664 -25.24,76.956C-20.565,79.135 -15.483,80.245 -10.298,80.244C-8.424,80.244 -6.535,80.1 -4.647,79.807C-3.039,79.559 -1.45,79.184 0.073,78.693C1.968,78.084 3.783,77.433 5.177,76.167C7.195,74.331 8.036,71.159 7.675,66.739Z" style="fill:rgb(67,42,100);fill-rule:nonzero;"/>
                </g>
                <g transform="matrix(-1,0,0,1,45.9194,51.0073)">
                    <path d="M0.001,-6.989C2.538,-6.989 4.602,-5.422 4.602,-3.495C4.602,-1.568 2.538,0 0.001,0C-2.536,0 -4.601,-1.568 -4.601,-3.495C-4.601,-5.422 -2.536,-6.989 0.001,-6.989" style="fill:rgb(67,42,100);fill-rule:nonzero;"/>
                </g>
                <g transform="matrix(-1,0,0,1,45.9194,51.0073)">
                    <ellipse cx="0" cy="-3.495" rx="4.602" ry="3.495" style="fill:rgb(67,42,100);"/>
                </g>
            </g>
        </g>
    </g>
</svg>
